<?xml version="1.0" encoding="utf-8"?>
<!-- Generator: Adobe Illustrator 16.0.0, SVG Export Plug-In . SVG Version: 6.00 Build 0)  -->
<!DOCTYPE svg PUBLIC "-//W3C//DTD SVG 1.1//EN" "http://www.w3.org/Graphics/SVG/1.1/DTD/svg11.dtd">
<svg version="1.1" id="Layer_1" xmlns="http://www.w3.org/2000/svg" xmlns:xlink="http://www.w3.org/1999/xlink" x="0px" y="0px"
	 width="519px" height="162px" viewBox="0 0 519 162" enable-background="new 0 0 519 162" xml:space="preserve">
<g>
	<g>
		<path fill="#0498D1" d="M150.254,65.256L98.406,13.408c7.207,8.708,6.706,21.62-1.401,29.828L80.89,59.35l5.905,5.906
			c8.709,8.708,8.709,22.721,0,31.329l-5.905,5.904l16.115,16.115c8.208,8.208,8.608,21.12,1.401,29.828l51.848-51.848
			C158.962,87.977,158.962,73.964,150.254,65.256z"/>
		<path fill="#8FD8F8" d="M64.875,118.706l16.115-16.115l-5.906-5.906c-8.707-8.708-8.707-22.721,0-31.328l5.906-5.905
			L64.875,43.336c-8.207-8.208-8.607-21.12-1.401-29.827L11.626,65.356c-8.708,8.708-8.708,22.722,0,31.328l51.848,51.848
			C56.268,139.825,56.768,126.813,64.875,118.706z"/>
		<path fill="#29B7EB" d="M64.875,43.235L80.99,59.35l16.114-16.115c8.208-8.208,8.608-21.12,1.401-29.828l-1.901-1.901
			C92.301,7.203,86.695,5,80.99,5c-5.605,0-11.311,2.203-15.615,6.506l-1.901,1.901C56.268,22.216,56.768,35.128,64.875,43.235z"/>
		<path fill="#29B7EB" d="M97.005,118.706L80.89,102.591l-16.114,16.115c-8.208,8.207-8.608,21.119-1.402,29.826l1.902,1.902
			c4.304,4.304,9.909,6.506,15.614,6.506c5.605,0,11.311-2.202,15.614-6.506l1.902-1.902
			C105.713,139.825,105.213,126.813,97.005,118.706z"/>
	</g>
	<g>
		<path fill="#010101" d="M223.422,58.55c0-6.406-4.305-9.509-12.813-9.509s-12.912,3.003-12.912,9.509v2.002
			c0,4.604,3.304,6.306,5.405,7.106l22.922,8.208c8.908,3.203,15.515,9.208,15.515,18.918v10.109
			c0,11.109-7.808,21.419-31.33,21.419c-23.421,0-31.429-10.409-31.429-21.419v-8.309c0-2.402,0.901-3.402,3.203-3.402h11.11
			c2.402,0,3.203,1.102,3.203,3.402v5.906c0,6.405,5.004,9.508,13.912,9.508c8.809,0,13.913-3.002,13.913-9.508v-4.205
			c0-5.404-5.305-7.506-11.21-9.709l-20.419-7.607c-6.306-2.402-12.011-9.108-12.011-17.016v-7.807
			c0-11.11,6.806-21.419,29.928-21.419c23.021,0,30.428,10.41,30.428,21.419v5.405c0,2.202-0.9,3.303-3.303,3.303h-11.11
			c-2.202,0-3.003-1.101-3.003-3.303V58.55L223.422,58.55z"/>
		<path fill="#010101" d="M306.898,35.729c2.203,0,3.304,0.8,3.304,3.203v8.308c0,2.402-1.101,3.303-3.304,3.303h-18.717v71.365
			c0,2.402-0.801,3.403-3.203,3.403h-11.41c-2.402,0-3.304-1.101-3.304-3.403V50.542h-18.717c-2.402,0-3.304-0.901-3.304-3.303
			v-8.308c0-2.402,0.901-3.203,3.304-3.203H306.898z"/>
		<path fill="#010101" d="M323.715,125.312c-2.103,0-2.803-1.201-2.803-3.403V39.231c0-2.402,0.801-3.403,3.203-3.403h28.727
			c23.822,0,32.129,10.41,32.129,21.419v46.644c0,11.11-8.308,21.42-32.129,21.42H323.715z M338.729,50.542v60.056h14.113
			c8.908,0,14.313-3.304,14.313-9.91V60.352c0-6.606-5.404-9.909-14.313-9.909h-14.113V50.542z"/>
		<path fill="#010101" d="M449.73,92.381c0,1.201-0.5,1.802-1.801,1.802h-37.234v14.613c0,6.105,3.203,10.109,15.314,10.109
			c12.11,0,15.313-4.104,15.313-10.109v-2.202c0-1.302,0.501-1.802,1.802-1.802h4.704c1.302,0,2.002,0.5,2.002,1.802v2.802
			c0,10.109-5.905,17.016-24.122,17.016c-18.017,0-23.922-6.805-23.922-17.016v-33.23c0-10.109,6.105-17.016,24.223-17.016
			c18.016,0,23.821,6.806,23.821,17.016v16.216H449.73z M410.595,87.275h30.528V76.766c0-5.905-3.703-10.109-15.314-10.109
			c-11.811,0-15.314,4.204-15.314,10.109v10.509H410.595z"/>
		<path fill="#010101" d="M482.662,125.312c-1.201,0-1.602-0.501-2.002-1.802l-20.82-61.257c-0.4-1.201,0.4-2.002,1.702-2.002h5.705
			c1.302,0,1.802,0.801,2.202,2.002l14.713,43.54c0.801,2.603,1.702,7.207,1.803,8.208c0.1-0.701,0.801-4.904,2.002-8.008
			l15.014-43.74c0.4-1.201,0.9-2.002,2.201-2.002h5.005c1.401,0,2.103,0.801,1.702,2.002l-21.02,61.257
			c-0.4,1.301-0.801,1.802-2.102,1.802H482.662z"/>
	</g>
	<g>
		<g>
			<g>
				<g>
					<path fill="#010101" d="M191.292,150.735c0,0.2-0.101,0.2-0.3,0.2h-0.801c-0.201,0-0.201-0.101-0.301-0.2l-2.202-8.208
						c-0.1-0.4-0.2-0.901-0.2-1.001l-0.3,1.102l-2.303,8.207c0,0.201-0.1,0.201-0.3,0.201h-0.701c-0.199,0-0.199-0.101-0.3-0.201
						l-2.803-10.609c0-0.201,0-0.301,0.2-0.301h0.701c0.199,0,0.199,0.101,0.3,0.301l2.202,8.408c0.1,0.5,0.2,0.9,0.2,0.9l0.2-0.9
						l2.302-8.408c0-0.201,0.101-0.301,0.301-0.301h0.7c0.2,0,0.301,0.101,0.301,0.301l2.201,8.408c0.101,0.399,0.201,0.8,0.201,0.9
						c0-0.101,0.1-0.501,0.199-0.9l2.303-8.408c0-0.201,0.1-0.301,0.301-0.301h0.6c0.201,0,0.301,0.101,0.201,0.301L191.292,150.735
						z"/>
					<path fill="#010101" d="M204.204,145.229c0,0.201-0.101,0.201-0.2,0.201h-6.606v2.803c0,1.101,0.601,1.9,2.903,1.9
						c2.201,0,2.902-0.8,2.902-1.9v-0.501c0-0.2,0.1-0.3,0.2-0.3h0.601c0.2,0,0.3,0.1,0.3,0.3v0.501c0,1.602-0.9,2.802-4.003,2.802
						c-3.104,0-4.004-1.101-4.004-2.802v-5.906c0-1.602,1-2.803,4.004-2.803c3.002,0,4.003,1.102,4.003,2.803v2.902H204.204z
						 M197.297,144.63h5.706v-2.103c0-1.101-0.7-1.901-2.903-1.901c-2.201,0-2.902,0.801-2.902,1.901v2.103H197.297z"/>
					<path fill="#010101" d="M207.807,150.935c-0.199,0-0.3-0.1-0.3-0.3v-15.214c0-0.201,0.101-0.301,0.3-0.301h0.602
						c0.199,0,0.3,0.101,0.3,0.301v5.605c0.7-0.501,1.901-1.401,3.903-1.401c2.103,0,3.104,1.101,3.104,2.802v5.906
						c0,1.602-0.901,2.802-3.104,2.802c-1.901,0-3.303-0.9-3.903-1.401v0.9c0,0.201-0.101,0.301-0.3,0.301H207.807L207.807,150.935z
						 M214.514,142.628c0-1.002-0.601-1.802-2.202-1.802c-1.802,0-3.103,0.901-3.604,1.301v6.606c0.501,0.4,1.802,1.301,3.604,1.301
						c1.602,0,2.202-0.801,2.202-1.901V142.628z"/>
					<path fill="#010101" d="M224.223,142.427c0-1.602,0.9-2.802,3.903-2.802s3.903,1.101,3.903,2.802v8.208
						c0,0.2-0.1,0.3-0.199,0.3h-0.602c-0.199,0-0.3-0.1-0.3-0.3v-0.9c-0.7,0.501-2.002,1.301-3.804,1.301
						c-2.102,0-3.103-1.101-3.103-2.603v-1.102c0-1.501,0.9-2.602,2.803-2.602h4.104v-2.203c0-1.101-0.601-1.901-2.803-1.901
						s-2.803,0.801-2.803,1.901v0.301c0,0.2-0.1,0.3-0.3,0.3h-0.601c-0.2,0-0.2-0.101-0.2-0.3V142.427z M230.929,148.833v-3.104
						h-3.903c-1.302,0-1.902,0.701-1.902,1.803v0.9c0,1.101,0.701,1.801,2.202,1.801
						C229.127,150.134,230.328,149.233,230.929,148.833z"/>
					<path fill="#010101" d="M236.834,140.125v0.901c0.701-0.501,2.002-1.401,3.904-1.401c2.102,0,3.103,1.101,3.103,2.702v8.308
						c0,0.2-0.101,0.3-0.2,0.3h-0.701c-0.2,0-0.2-0.1-0.2-0.3v-8.107c0-1.101-0.7-1.901-2.202-1.901c-1.801,0-3.103,0.9-3.604,1.4
						v8.608c0,0.2-0.1,0.3-0.3,0.3h-0.601c-0.2,0-0.3-0.1-0.3-0.3v-10.61c0-0.199,0.1-0.299,0.3-0.299h0.601
						C236.734,139.825,236.834,139.925,236.834,140.125z"/>
					<path fill="#010101" d="M254.351,149.734c-0.701,0.501-2.002,1.401-3.903,1.401c-2.103,0-3.104-1.102-3.104-2.803v-5.905
						c0-1.602,0.9-2.802,3.104-2.802c1.901,0,3.202,0.9,3.903,1.4v-5.605c0-0.2,0.1-0.3,0.2-0.3h0.7c0.2,0,0.3,0.101,0.3,0.3v15.215
						c0,0.2-0.1,0.3-0.3,0.3h-0.601c-0.2,0-0.3-0.101-0.3-0.3V149.734z M248.445,148.233c0,1,0.6,1.9,2.201,1.9
						c1.802,0,3.104-0.9,3.604-1.301v-6.605c-0.5-0.4-1.802-1.301-3.604-1.301c-1.602,0-2.201,0.801-2.201,1.801V148.233z"/>
					<path fill="#010101" d="M265.36,139.825c0.2,0,0.3,0.1,0.3,0.299v0.901c0.602-0.501,1.902-1.401,3.805-1.401
						c1.601,0,2.502,0.602,2.902,1.602c0.5-0.5,1.801-1.602,4.004-1.602c2.102,0,3.103,1.102,3.103,2.703v8.307
						c0,0.201-0.101,0.301-0.3,0.301h-0.602c-0.199,0-0.3-0.1-0.3-0.301v-8.107c0-1.101-0.601-1.901-2.202-1.901
						c-1.902,0-3.103,1.001-3.503,1.401c0,0.2,0,0.301,0,0.5v8.107c0,0.201-0.101,0.301-0.2,0.301h-0.701c-0.2,0-0.2-0.1-0.2-0.301
						v-8.107c0-1.101-0.7-1.901-2.202-1.901c-1.801,0-3.002,0.901-3.503,1.401v8.607c0,0.201-0.101,0.301-0.3,0.301h-0.602
						c-0.199,0-0.3-0.1-0.3-0.301v-10.609c0-0.2,0.101-0.3,0.3-0.3h0.501V139.825z"/>
					<path fill="#010101" d="M282.776,142.427c0-1.602,1.101-2.802,4.104-2.802c3.002,0,4.104,1.101,4.104,2.802v5.906
						c0,1.602-1.102,2.802-4.104,2.802c-3.004,0-4.104-1.101-4.104-2.802V142.427z M289.783,142.527
						c0-1.101-0.701-1.901-2.902-1.901c-2.203,0-2.903,0.801-2.903,1.901v5.706c0,1.101,0.7,1.9,2.903,1.9
						c2.201,0,2.902-0.7,2.902-1.9V142.527z"/>
					<path fill="#010101" d="M294.787,150.935c-0.199,0-0.3-0.1-0.3-0.3v-15.214c0-0.201,0.101-0.301,0.3-0.301h0.602
						c0.199,0,0.3,0.101,0.3,0.301v5.605c0.7-0.501,1.901-1.401,3.903-1.401c2.102,0,3.104,1.101,3.104,2.802v5.906
						c0,1.602-0.901,2.802-3.104,2.802c-1.901,0-3.303-0.9-3.903-1.401v0.9c0,0.201-0.101,0.301-0.3,0.301H294.787L294.787,150.935z
						 M301.494,142.628c0-1.002-0.601-1.802-2.202-1.802c-1.802,0-3.103,0.901-3.604,1.301v6.606c0.501,0.4,1.802,1.301,3.604,1.301
						c1.602,0,2.202-0.801,2.202-1.901V142.628z"/>
					<path fill="#010101" d="M307.399,137.623c0,0.2-0.101,0.3-0.3,0.3h-0.602c-0.199,0-0.3-0.1-0.3-0.3v-2.103
						c0-0.2,0.101-0.3,0.3-0.3h0.602c0.199,0,0.3,0.101,0.3,0.3V137.623z M307.399,150.635c0,0.2-0.101,0.3-0.3,0.3h-0.602
						c-0.199,0-0.3-0.1-0.3-0.3v-10.51c0-0.2,0.101-0.3,0.3-0.3h0.602c0.199,0,0.3,0.1,0.3,0.3V150.635z"/>
					<path fill="#010101" d="M312.304,150.635c0,0.2-0.1,0.3-0.3,0.3h-0.601c-0.2,0-0.301-0.1-0.301-0.3v-15.214
						c0-0.201,0.101-0.301,0.301-0.301h0.601c0.2,0,0.3,0.101,0.3,0.301V150.635z"/>
					<path fill="#010101" d="M323.814,145.229c0,0.201-0.1,0.201-0.2,0.201h-6.606v2.803c0,1.101,0.602,1.9,2.903,1.9
						c2.202,0,2.902-0.8,2.902-1.9v-0.501c0-0.2,0.101-0.3,0.2-0.3h0.601c0.2,0,0.3,0.1,0.3,0.3v0.501
						c0,1.602-0.9,2.802-4.003,2.802c-3.003,0-4.004-1.101-4.004-2.802v-5.906c0-1.602,1.001-2.803,4.004-2.803
						s4.003,1.102,4.003,2.803v2.902H323.814z M317.008,144.63h5.705v-2.103c0-1.101-0.7-1.901-2.902-1.901
						c-2.201,0-2.902,0.801-2.902,1.901v2.103H317.008z"/>
					<path fill="#010101" d="M339.129,149.734c-0.701,0.501-2.002,1.401-3.904,1.401c-2.102,0-3.103-1.102-3.103-2.803v-5.905
						c0-1.602,0.901-2.802,3.103-2.802c1.902,0,3.203,0.9,3.904,1.4v-5.605c0-0.2,0.1-0.3,0.2-0.3h0.7c0.2,0,0.301,0.101,0.301,0.3
						v15.215c0,0.2-0.101,0.3-0.301,0.3h-0.601c-0.2,0-0.3-0.101-0.3-0.3V149.734z M333.323,148.233c0,1,0.601,1.9,2.202,1.9
						c1.802,0,3.103-0.9,3.604-1.301v-6.605c-0.501-0.4-1.802-1.301-3.604-1.301c-1.602,0-2.202,0.801-2.202,1.801V148.233z"/>
					<path fill="#010101" d="M351.84,145.229c0,0.201-0.1,0.201-0.199,0.201h-6.606v2.803c0,1.101,0.601,1.9,2.903,1.9
						c2.302,0,2.902-0.8,2.902-1.9v-0.501c0-0.2,0.1-0.3,0.2-0.3h0.601c0.199,0,0.3,0.1,0.3,0.3v0.501
						c0,1.602-0.9,2.802-4.003,2.802c-3.104,0-4.004-1.101-4.004-2.802v-5.906c0-1.602,1-2.803,4.004-2.803
						c3.002,0,4.003,1.102,4.003,2.803v2.902H351.84z M345.034,144.63h5.705v-2.103c0-1.101-0.7-1.901-2.902-1.901
						s-2.903,0.801-2.903,1.901v2.103H345.034z"/>
					<path fill="#010101" d="M357.646,150.935c-0.201,0-0.201-0.1-0.301-0.199l-3.604-10.611c0-0.199,0-0.299,0.2-0.299h0.7
						c0.2,0,0.301,0.1,0.301,0.299l2.803,8.108c0.1,0.3,0.2,1.001,0.301,1.201c0-0.101,0.199-0.8,0.3-1.201l2.803-8.108
						c0-0.199,0.1-0.299,0.3-0.299h0.601c0.2,0,0.2,0.1,0.2,0.299l-3.604,10.611c-0.1,0.199-0.1,0.199-0.3,0.199H357.646z"/>
					<path fill="#010101" d="M372.26,145.229c0,0.201-0.101,0.201-0.201,0.201h-6.605v2.803c0,1.101,0.601,1.9,2.902,1.9
						c2.303,0,2.903-0.8,2.903-1.9v-0.501c0-0.2,0.1-0.3,0.2-0.3h0.6c0.201,0,0.301,0.1,0.301,0.3v0.501
						c0,1.602-0.9,2.802-4.004,2.802c-3.002,0-4.004-1.101-4.004-2.802v-5.906c0-1.602,1.002-2.803,4.004-2.803
						c3.003,0,4.004,1.102,4.004,2.803v2.902H372.26z M365.453,144.63h5.705v-2.103c0-1.101-0.701-1.901-2.902-1.901
						c-2.202,0-2.903,0.801-2.903,1.901v2.103H365.453z"/>
					<path fill="#010101" d="M376.764,150.635c0,0.2-0.1,0.3-0.301,0.3h-0.6c-0.201,0-0.301-0.1-0.301-0.3v-15.214
						c0-0.201,0.1-0.301,0.301-0.301h0.6c0.2,0,0.301,0.101,0.301,0.301V150.635z"/>
					<path fill="#010101" d="M380.267,142.427c0-1.602,1.101-2.802,4.104-2.802c3.002,0,4.104,1.101,4.104,2.802v5.906
						c0,1.602-1.102,2.802-4.104,2.802c-3.004,0-4.104-1.101-4.104-2.802V142.427z M387.273,142.527
						c0-1.101-0.701-1.901-2.902-1.901c-2.203,0-2.903,0.801-2.903,1.901v5.706c0,1.101,0.7,1.9,2.903,1.9
						c2.201,0,2.902-0.7,2.902-1.9V142.527z"/>
					<path fill="#010101" d="M392.879,139.825c0.199,0,0.3,0.1,0.3,0.299v0.901c0.7-0.501,2.002-1.401,3.903-1.401
						c2.102,0,3.104,1.102,3.104,2.803v5.905c0,1.602-0.901,2.802-3.104,2.802c-1.901,0-3.203-0.8-3.903-1.301v5.605
						c0,0.201-0.101,0.301-0.3,0.301h-0.602c-0.199,0-0.3-0.101-0.3-0.301v-15.214c0-0.2,0.101-0.3,0.3-0.3h0.602V139.825z
						 M398.984,142.628c0-1.002-0.602-1.802-2.202-1.802c-1.802,0-3.103,0.901-3.604,1.301v6.606c0.501,0.4,1.802,1.301,3.604,1.301
						c1.601,0,2.202-0.801,2.202-1.901V142.628z"/>
					<path fill="#010101" d="M404.59,139.825c0.199,0,0.3,0.1,0.3,0.299v0.901c0.601-0.501,1.901-1.401,3.804-1.401
						c1.602,0,2.502,0.602,2.902,1.602c0.5-0.5,1.802-1.602,4.004-1.602c2.102,0,3.103,1.102,3.103,2.703v8.307
						c0,0.201-0.1,0.301-0.3,0.301h-0.601c-0.2,0-0.301-0.1-0.301-0.301v-8.107c0-1.101-0.601-1.901-2.202-1.901
						c-1.901,0-3.103,1.001-3.503,1.401c0,0.2,0,0.301,0,0.5v8.107c0,0.201-0.101,0.301-0.2,0.301h-0.7c-0.2,0-0.2-0.1-0.2-0.301
						v-8.107c0-1.101-0.701-1.901-2.202-1.901c-1.802,0-3.003,0.901-3.503,1.401v8.607c0,0.201-0.101,0.301-0.301,0.301h-0.601
						c-0.2,0-0.3-0.1-0.3-0.301v-10.609c0-0.2,0.1-0.3,0.3-0.3h0.501V139.825z"/>
					<path fill="#010101" d="M429.912,145.229c0,0.201-0.1,0.201-0.199,0.201h-6.606v2.803c0,1.101,0.601,1.9,2.903,1.9
						c2.302,0,2.902-0.8,2.902-1.9v-0.501c0-0.2,0.1-0.3,0.199-0.3h0.602c0.199,0,0.3,0.1,0.3,0.3v0.501
						c0,1.602-0.901,2.802-4.003,2.802c-3.004,0-4.004-1.101-4.004-2.802v-5.906c0-1.602,1-2.803,4.004-2.803
						c3.002,0,4.003,1.102,4.003,2.803v2.902H429.912z M423.106,144.63h5.705v-2.103c0-1.101-0.7-1.901-2.902-1.901
						s-2.903,0.801-2.903,1.901v2.103H423.106z"/>
					<path fill="#010101" d="M434.417,140.125v0.901c0.7-0.501,2.002-1.401,3.903-1.401c2.102,0,3.104,1.101,3.104,2.702v8.308
						c0,0.2-0.101,0.3-0.201,0.3h-0.7c-0.2,0-0.2-0.1-0.2-0.3v-8.107c0-1.101-0.7-1.901-2.201-1.901c-1.803,0-3.104,0.9-3.604,1.4
						v8.608c0,0.2-0.101,0.3-0.301,0.3h-0.601c-0.2,0-0.3-0.1-0.3-0.3v-10.61c0-0.199,0.1-0.299,0.3-0.299h0.601
						C434.316,139.825,434.417,139.925,434.417,140.125z"/>
					<path fill="#010101" d="M449.33,139.925c0.201,0,0.301,0.1,0.301,0.2v0.501c0,0.2-0.1,0.3-0.301,0.3h-2.702v7.207
						c0,1.101,0.601,1.901,2.803,1.901h0.4c0.2,0,0.301,0.1,0.301,0.301v0.5c0,0.2-0.101,0.3-0.301,0.3h-0.501
						c-3.002,0-3.902-1.101-3.902-2.802v-7.307h-1.402c-0.199,0-0.3-0.101-0.3-0.301v-0.4c0-0.2,0.101-0.2,0.3-0.3l1.201-0.101h0.2
						v-2.401c0-0.2,0.101-0.3,0.301-0.3h0.7c0.2,0,0.2,0.1,0.2,0.3v2.401H449.33L449.33,139.925z"/>
				</g>
			</g>
		</g>
	</g>
</g>
</svg>
